<svg 
 xmlns="http://www.w3.org/2000/svg"
 xmlns:xlink="http://www.w3.org/1999/xlink"
 width="17px" height="17px">
<path fill-rule="evenodd"  fill="rgb(91, 63, 97)"
 d="M9.992,14.002 C8.609,14.002 7.328,13.588 6.243,12.895 L2.451,16.687 L0.597,14.833 L4.337,11.093 C3.504,9.942 3.000,8.539 3.000,7.010 C3.000,3.148 6.130,0.017 9.992,0.017 C13.854,0.017 16.985,3.148 16.985,7.010 C16.985,10.871 13.854,14.002 9.992,14.002 ZM9.966,2.403 C7.426,2.403 5.367,4.461 5.367,7.001 C5.367,9.541 7.426,11.599 9.966,11.599 C12.505,11.599 14.564,9.541 14.564,7.001 C14.564,4.461 12.505,2.403 9.966,2.403 Z"/>
</svg>